<svg xmlns="http://www.w3.org/2000/svg" viewBox="0 0 769.94 163.47"><defs><style>.cls-1{fill:#027f9c;}.cls-2{font-size:29.6px;fill:none;stroke:#027f9c;stroke-miterlimit:10;font-family:GothamThin, Gotham Thin;letter-spacing:0.62em;}</style></defs><title>Ativo 1</title><g id="Camada_2" data-name="Camada 2"><g id="Layer_1" data-name="Layer 1"><path class="cls-1" d="M768.25,30.37H753.32a25.75,25.75,0,0,0-14.4,4.39v-10h0A25.77,25.77,0,0,0,737,16.14a23,23,0,0,0-1.1-2.36c-.39-.73-.81-1.45-1.26-2.15l-.34-.49a25.68,25.68,0,0,0-10.8-8.94A25.58,25.58,0,0,0,713.11,0h-17.2V11.14h0a25.53,25.53,0,0,0,2.95,11c.34.66.72,1.3,1.12,1.92.16.25.31.48.48.72a25.46,25.46,0,0,0,2.15,2.7,25.74,25.74,0,0,0,9.4,6.55,25.06,25.06,0,0,0,6.81,1.73c.69.08,1.38.12,2.09.14l.78,0h1.82V24.8h-2.1a14.68,14.68,0,0,1-14.23-12.43c-.06-.41-.1-.82-.13-1.23h6.32a14.65,14.65,0,0,1,13.75,10.4,13.75,13.75,0,0,1,.47,2c.06.4.1.81.13,1.22v.09a3.31,3.31,0,0,1,0,.44V48.65c0,.38,0,.94,0,1.58,0,.91,0,2-.14,3.06a14.55,14.55,0,0,1-2.06,5.58,15.1,15.1,0,0,1-2,2.55,14.57,14.57,0,0,1-6.71,3.87,13.89,13.89,0,0,1-2.68.44q-.36,0-.72,0h-11.2L691.29,27.65a6.63,6.63,0,0,0-4.13-4.42,16.9,16.9,0,0,0-12.46,0,6.89,6.89,0,0,0-4.13,4.42l-23,80.18a4.69,4.69,0,0,0,.14,3.42,3,3,0,0,0,2.94,1.55h7l10.47-35.9h26.29l8.69,31.62a6.34,6.34,0,0,0,2.31,3.09,6.75,6.75,0,0,0,3.71,1.19h6.66L705.43,76.9h7.68a25.22,25.22,0,0,0,5.93-.77l.18,0c.8-.18,1.57-.39,2.33-.62a25,25,0,0,0,5.92-3,3.37,3.37,0,0,0,.31-.21,24.23,24.23,0,0,0,2-1.56c.48-.41.94-.83,1.39-1.27a24.83,24.83,0,0,0,2.4-2.72c.38-.48.74-1,1.08-1.5.05-.08.09-.16.15-.24a25.67,25.67,0,0,0,3.68-9.4q.07-.45.15-.93a.56.56,0,0,1,0,.07c.05-.35.2-1.1.27-1.45a14.72,14.72,0,0,1,14.4-11.82h5.48c0,.35,0,.69-.07,1a14.66,14.66,0,0,1-14.29,13.09h-1.66A30.14,30.14,0,0,1,739,66.26l-.09.16-.22.35h5.44a25.75,25.75,0,0,0,25.79-25.26h0V30.37ZM670.93,65.73l9-31.08H682l9,31.08Z"/><path class="cls-1" d="M60,22a6.05,6.05,0,0,0-2.39,3.17L35.84,101.46H33.68l-23-80.81H3.45A3.16,3.16,0,0,0,.33,22.23a5.06,5.06,0,0,0,0,3.62l23.73,82.76a7.33,7.33,0,0,0,4.34,4.64,15.82,15.82,0,0,0,6.45,1.23,16.49,16.49,0,0,0,6.43-1.23,7.3,7.3,0,0,0,4.26-4.64l25.26-88H63.92A6.73,6.73,0,0,0,60,22Z"/><path class="cls-1" d="M87.28,25.27q-6.51,5.43-6.5,15.55V94.14q0,10.14,6.5,15.56a19.82,19.82,0,0,0,12.89,4.49H132v-5.36q0-6-6.28-6H100.23a7.87,7.87,0,0,1-5.35-2,8.29,8.29,0,0,1-2.75-6.73v-21h33.58q6.29,0,6.28-6V61.66H92.13V40.82A8.65,8.65,0,0,1,94.88,34a8.06,8.06,0,0,1,5.35-1.89h25.48q6.29,0,6.28-6V20.72H100.17A19.42,19.42,0,0,0,87.28,25.27Z"/><path class="cls-1" d="M192.63,77.5a23.72,23.72,0,0,0,12.08-8.1,30.62,30.62,0,0,0,6.8-19.89,30.48,30.48,0,0,0-6.8-19.9q-7.32-8.91-17.8-8.89H157.83q-6.3,0-6.3,6v81.46q0,6,6.3,6h5.06v-36h14a11.07,11.07,0,0,1,5.58,1.59A9.24,9.24,0,0,1,186.34,84l11.78,26.54q1.6,3.7,6.36,3.7h7.68L199.07,84.66Q196.52,79.1,192.63,77.5ZM162.89,66.87V32.14h24q5.22,0,9,4.64a19.42,19.42,0,0,1,4.28,12.73A19.13,19.13,0,0,1,196,62.17q-3.82,4.71-9,4.7Z"/><path class="cls-1" d="M278.14,28.67a34.77,34.77,0,0,0-22.87-8H233.21c-4.19,0-6.3,2-6.3,6v81.46c0,4,2.11,6,6.3,6h22.06a34.72,34.72,0,0,0,22.87-8,29.35,29.35,0,0,0,7.31-9,24.21,24.21,0,0,0,2.73-11.36V49.07Q288.18,37.07,278.14,28.67Zm-1.3,57.15q0,6.74-5.93,11.66a23.91,23.91,0,0,1-15.64,5.35h-17V32.14h17a23.89,23.89,0,0,1,15.64,5.28q5.93,5,5.93,11.65Z"/><path class="cls-1" d="M311.64,25.27c-4.36,3.62-6.51,8.81-6.51,15.55V94.14c0,6.76,2.15,11.94,6.51,15.56a19.73,19.73,0,0,0,12.87,4.49h31.83v-5.36q0-6-6.29-6H324.59a7.86,7.86,0,0,1-5.36-2,8.29,8.29,0,0,1-2.76-6.73v-21h33.58q6.3,0,6.29-6V61.66H316.47V40.82A8.66,8.66,0,0,1,319.23,34a8.05,8.05,0,0,1,5.36-1.89h25.46q6.3,0,6.29-6V20.72H324.51A19.33,19.33,0,0,0,311.64,25.27Z"/><path class="cls-1" d="M434.29,71.45c0,3.87,2,5.8,6.09,5.8h14.85V87.1q0,6.51-5.74,11.27a24.79,24.79,0,0,1-30.33,0q-5.73-4.75-5.74-11.27V48c0-4.3,1.92-8,5.74-11.2a24.79,24.79,0,0,1,30.33,0,16.75,16.75,0,0,1,3.85,4.48,4.42,4.42,0,0,0,3.08,2,6.21,6.21,0,0,0,4-.5L465,40.46a26.47,26.47,0,0,0-8.54-12.11,35.61,35.61,0,0,0-44.26,0q-9.74,8-9.73,19.67V87.1q0,11.63,9.73,19.75a35.91,35.91,0,0,0,44.26,0q9.74-8.05,9.74-19.75V66.26H434.29Z"/><path class="cls-1" d="M523.89,28.13V65.84H489.3V22.33h-4.92c-4.07,0-6.09,1.93-6.09,5.8V107c0,3.88,2,5.82,6.09,5.82h4.92V76.9h34.59V107q0,5.82,6.07,5.82h5V22.33h-5Q523.89,22.33,523.89,28.13Z"/><path class="cls-1" d="M585.55,23.37a16.9,16.9,0,0,0-12.46,0A6.87,6.87,0,0,0,569,27.78l-23,80.19a4.72,4.72,0,0,0,.14,3.43,3,3,0,0,0,2.94,1.54h7L566.47,77h26.29l8.69,31.63a6.36,6.36,0,0,0,2.31,3.08,6.73,6.73,0,0,0,3.71,1.19h6.66L589.68,27.78A6.64,6.64,0,0,0,585.55,23.37Zm-16.23,42.5,8.95-31.09h2.1l9,31.09Z"/><path class="cls-1" d="M625.11,28.13V107q0,5.82,6.08,5.82h4.91V22.33h-4.91Q625.12,22.33,625.11,28.13Z"/><text class="cls-2" transform="translate(182.88 158.02)">RISCO LEGAL</text></g></g></svg>